<svg
  xmlns="http://www.w3.org/2000/svg"
  viewBox="0 0 143.88988 143.88988"
>
  <g transform="translate(11.445095)">
    <g transform="matrix(.35277779 0 0 .35277779 -44.0002378 -32.999882)">
      <path d="m296.23047 496.73437c-35.52735 0-68.14063-11.89062-89.13672-29.65234-10.66406 3.1875-24.30469 8.3125-32.91016 14.67188-7.36718 5.4375-6.44922 10.98046-5.12109 13.21875 5.82812 9.83593 99.98437 6.28125 127.16797 3.21875zm0 0" />
      <path d="m296.23047 496.73437c35.53125 0 68.14062-11.89062 89.14062-29.65234 10.66016 3.1875 24.30078 8.3125 32.91016 14.67188 7.36328 5.4375 6.44531 10.98046 5.11719 13.21875-5.82813 9.83593-99.98438 6.28125-127.16797 3.21875zm0 0" />
      <path d="m296.4375 283.80078c58.67187-.39844 105.69141-11.75391 121.625-16.10937 3.79687-1.03907 5.82812-2.90235 5.82812-2.90235.0156-.53515.24219-9.55078.24219-14.20312 0-78.32813-36.97656-157.039065-127.91406-157.042971-90.93359.0039-127.91016 78.714841-127.91016 157.042971 0 4.65234.22657 13.66797.24219 14.20312 0 0 1.65234 1.74219 4.67969 2.58594 14.71094 4.09375 62.61719 16.01562 122.77344 16.42578zm0 0" />
      <path d="m455.87109 349.05469c-3.63672-11.70313-8.60156-25.35157-13.6289-38.46094 0 0-2.89063-.35547-4.35547.0664-45.10938 13.10546-99.78516 21.45703-141.44922 20.95312h-.43359c-41.4336.49609-95.73829-7.75781-140.69532-20.73437-1.71875-.4961-5.10937-.28516-5.10937-.28516-5.02735 13.10937-9.99219 26.75781-13.62891 38.46094-17.34375 55.8125-11.72265 78.91015-7.44531 79.42968 9.17969 1.10938 35.73437-42.01562 35.73437-42.01562 0 43.82031 39.5625 111.10547 130.16016 111.72266.40234-.004 2-.004 2.40234 0 90.59766-.61719 130.16016-67.90235 130.16016-111.72266 0 0 26.55469 43.125 35.73438 42.01562 4.27734-.51953 9.89843-23.61718-7.44532-79.42968" />
      <path d="m423.89062 264.78906s-54.79296 17.29688-127.45312 17.78906h-.43359c-72.54297-.48828-127.26563-17.73046-127.45313-17.78906l-18.35156 45.80469c45.90234 13.83984 102.78906 22.75781 145.80469 22.23828h.43359c43.01562.51953 99.89844-8.39844 145.80469-22.23828zm0 0" />
    </g>
  </g>
</svg>
